<svg width="467" height="260" viewBox="0 0 467 260" fill="none" xmlns="http://www.w3.org/2000/svg">
<circle cx="69.2422" cy="69.2422" r="69.2422" transform="matrix(-1 0 0 1 467 0)" fill="#FF3500"></circle>
<g clip-path="url(#clip0_2147_61829)">
<path d="M172.798 251.494L174.283 258.853H93.7488L88.1282 230.688L130.365 222.64C150.05 218.889 169.049 231.808 172.799 251.494H172.798Z" fill="#FF3500" stroke="#262525" stroke-linecap="round" stroke-linejoin="round"></path>
<path d="M54.7657 258.193C56.3685 238.216 73.8609 223.321 93.8361 224.924L136.695 228.363L133.981 258.853H54.706L54.7665 258.193H54.7657Z" fill="#FF3500" stroke="#262525" stroke-linecap="round" stroke-linejoin="round"></path>
<path d="M115.715 194.13C137.341 194.13 154.872 211.663 154.872 233.291C154.872 243.063 151.285 251.992 145.366 258.853H86.0647C80.1465 251.993 76.5591 243.063 76.5591 233.291C76.5591 211.663 94.0901 194.13 115.715 194.13Z" fill="#FF3500" stroke="#262525" stroke-linecap="round" stroke-linejoin="round"></path>
<path d="M150.657 227.367H80.7743" stroke="white" stroke-linecap="round" stroke-linejoin="round"></path>
<path d="M144.187 258.853V227.367" stroke="white" stroke-linecap="round" stroke-linejoin="round"></path>
<path d="M132.551 258.853V227.367" stroke="white" stroke-linecap="round" stroke-linejoin="round"></path>
<path d="M72.9574 258.853C74.1761 250.475 78.1779 242.728 84.3474 236.876L88.1273 233.291" stroke="white" stroke-linecap="round" stroke-linejoin="round"></path>
<path d="M65.6046 258.853C66.8233 250.475 70.8251 242.728 76.9946 236.876L80.7745 233.291" stroke="white" stroke-linecap="round" stroke-linejoin="round"></path>
<path d="M221.559 162.783C221.559 186.613 236.896 205.932 245.504 205.932C254.113 205.932 261.092 186.613 261.092 162.783C261.092 138.952 254.113 119.633 245.504 119.633C236.896 119.633 221.559 138.952 221.559 162.783Z" fill="#262525" stroke="#262525" stroke-linecap="round" stroke-linejoin="round"></path>
<path d="M282.346 148.932C281.127 160.408 270.837 168.722 259.362 167.504L167.222 157.719C155.747 156.5 147.433 146.209 148.651 134.733C149.87 123.257 160.159 114.941 171.634 116.16L263.775 125.946C275.25 127.165 283.564 137.455 282.346 148.932Z" fill="white" stroke="#262525" stroke-linecap="round" stroke-linejoin="round"></path>
<path d="M229.918 162.783C229.918 181.911 233.551 198.121 239.777 203.779L161.21 168.601L174.234 116.042L245.505 119.633C236.897 119.633 229.918 138.952 229.918 162.783Z" fill="white" stroke="#262525" stroke-linecap="round" stroke-linejoin="round"></path>
<path d="M393.736 96.3654C397.853 107.146 392.453 119.223 381.673 123.342L269.362 166.242C258.583 170.359 246.507 164.958 242.389 154.177C238.272 143.396 243.672 131.319 254.452 127.201L366.762 84.3008C377.542 80.1835 389.618 85.5845 393.736 96.3654Z" fill="white"></path>
<path d="M252.21 124.718L259.051 125.444L366.762 84.2999C377.542 80.1825 389.618 85.5835 393.736 96.3644C397.853 107.145 392.453 119.222 381.673 123.341L269.362 166.241C265.942 167.547 262.391 167.895 259.005 167.418L247.601 166.254" stroke="#262525" stroke-linecap="round" stroke-linejoin="round"></path>
<path d="M395.891 123.906L397.022 135.856L413.302 133.901C416.601 133.589 419.023 130.661 418.711 127.361C418.399 124.062 415.471 121.64 412.171 121.952L395.891 123.906Z" fill="white"></path>
<path d="M394.76 111.957L395.891 123.906L422.411 120.983C425.71 120.671 428.131 117.742 427.819 114.443C427.508 111.143 424.579 108.722 421.28 109.033L394.76 111.957Z" fill="white"></path>
<path d="M393.63 100.008L394.761 111.957L425.849 108.601C429.148 108.29 431.57 105.361 431.258 102.061C430.946 98.762 428.018 96.3402 424.719 96.652L393.63 100.008Z" fill="white"></path>
<path d="M392.5 88.0591L393.63 100.008L420.15 97.0848C423.449 96.773 425.87 93.8442 425.559 90.5448C425.247 87.2454 422.318 84.8236 419.019 85.1354L392.5 88.0591Z" fill="white"></path>
<path d="M350.474 102.398L351.922 117.704C353.083 129.976 363.972 138.983 376.242 137.822L397.022 135.856L392.064 83.4616L376.429 78.0278L370.589 78.0757C358.318 79.2366 349.313 90.1268 350.474 102.398Z" fill="white"></path>
<path d="M370.453 93.1167L364 106.706L358.308 112.706" stroke="#262525" stroke-linecap="round" stroke-linejoin="round"></path>
<path d="M392.216 136.31L413.302 133.901C416.601 133.589 419.023 130.661 418.711 127.361C418.399 124.062 415.471 121.64 412.171 121.952L395.891 123.906" stroke="#262525" stroke-linecap="round" stroke-linejoin="round"></path>
<path d="M395.891 123.906L422.411 120.983C425.71 120.671 428.131 117.742 427.819 114.443C427.508 111.143 424.579 108.722 421.28 109.033L394.76 111.957" stroke="#262525" stroke-linecap="round" stroke-linejoin="round"></path>
<path d="M394.761 111.957L425.849 108.601C429.148 108.289 431.57 105.36 431.258 102.061C430.946 98.7615 428.018 96.3397 424.719 96.6516L393.63 100.007" stroke="#262525" stroke-linecap="round" stroke-linejoin="round"></path>
<path d="M393.63 100.008L420.15 97.0838C423.449 96.772 425.87 93.8433 425.559 90.5438C425.247 87.2444 422.318 84.8226 419.019 85.1345L387.693 88.5129" stroke="#262525" stroke-linecap="round" stroke-linejoin="round"></path>
<path d="M354.91 126.939C359.172 134.159 367.343 138.664 376.242 137.821L392.215 136.31" stroke="#262525" stroke-linecap="round" stroke-linejoin="round"></path>
<path d="M375.152 77.6514L370.589 78.0767C361.559 78.9308 354.298 85.0538 351.555 93.1179" stroke="#262525" stroke-linecap="round" stroke-linejoin="round"></path>
<path d="M372.792 143.725H416.123C417.583 143.725 418.912 142.541 419.091 141.081L430.442 48.6291C430.621 47.1689 429.583 45.9854 428.123 45.9854H384.792C383.332 45.9854 382.003 47.1689 381.824 48.6291L370.473 141.082C370.294 142.542 371.332 143.726 372.792 143.726V143.725Z" fill="#DAD4D4"></path>
<path d="M369.528 143.725H412.859C414.319 143.725 415.648 142.541 415.827 141.081L427.177 48.6291C427.356 47.1689 426.318 45.9854 424.858 45.9854H381.527C380.067 45.9854 378.738 47.1689 378.559 48.6291L367.209 141.082C367.03 142.542 368.068 143.726 369.528 143.726L369.528 143.725Z" fill="#262525"></path>
<path d="M382.687 50.4414H422.606C423.968 50.4414 424.937 51.546 424.77 52.9086L414.177 139.192C414.009 140.555 412.77 141.659 411.407 141.659H371.488C370.125 141.659 369.156 140.555 369.323 139.192L379.917 52.9086C380.084 51.546 381.324 50.4414 382.686 50.4414H382.687Z" fill="#262525"></path>
<path d="M402.501 34.4287C402.235 34.9124 401.626 35.0883 401.143 34.8216C400.659 34.5549 400.483 33.9467 400.75 33.4631L401.626 33.9459L402.501 34.4287ZM412.688 11.8121C412.954 11.3284 413.563 11.1526 414.046 11.4192C414.53 11.6859 414.706 12.2941 414.439 12.7778L413.563 12.2949L412.688 11.8121ZM401.626 33.9459L400.75 33.4631L412.688 11.8121L413.563 12.2949L414.439 12.7778L402.501 34.4287L401.626 33.9459Z" fill="white"></path>
<path d="M393.512 36.6235L375.715 21.7638" stroke="white" stroke-width="2" stroke-linecap="round" stroke-linejoin="round"></path>
<path d="M396.677 32.1233L392.916 14.6721" stroke="white" stroke-width="2" stroke-linecap="round" stroke-linejoin="round"></path>
<path d="M111.183 64.8706H121.797C126.593 64.8706 130.481 68.7588 130.481 73.555V111.962C130.481 116.758 126.593 120.646 121.797 120.646H111.183C106.387 120.646 102.5 116.758 102.5 111.962V73.555C102.5 68.7588 106.387 64.8706 111.183 64.8706Z" fill="white" stroke="#262525" stroke-linecap="round" stroke-linejoin="round"></path>
<path d="M108.294 78.8509V65.3649C109.199 65.0455 110.17 64.8706 111.183 64.8706H121.797C126.593 64.8706 130.48 68.7593 130.48 73.555V104.692C117.68 104.692 108.293 92.9052 108.293 78.8501L108.294 78.8509Z" fill="#262525"></path>
<path d="M57.3277 125.729C74.5393 117.024 102.5 110.89 102.5 110.89C102.5 110.89 108.452 116.429 123.194 116.429C130.481 116.429 130.648 110.89 130.648 110.89C130.648 110.89 156.431 111.988 175.998 116.273L166.658 153.108L169.674 163.924C172.446 173.865 170.145 184.535 163.522 192.449L159.522 197.228L159.796 211.163C159.89 215.894 156.08 219.778 151.349 219.778H80.239C74.1914 219.778 69.0801 215.294 68.2933 209.297L57.3277 125.728V125.729Z" fill="white"></path>
<path d="M169.4 142.291L166.658 153.107L169.673 163.923C172.446 173.864 170.144 184.534 163.521 192.448L159.522 197.227L159.796 211.162C159.889 215.893 156.08 219.777 151.348 219.777H80.2382C74.1906 219.777 69.0793 215.293 68.2926 209.295L57.327 125.727C74.5386 117.022 102.499 110.888 102.499 110.888C102.499 110.888 108.452 116.427 123.193 116.427C130.48 116.427 130.648 110.888 130.648 110.888C130.648 110.888 156.43 111.986 175.998 116.271" stroke="#262525" stroke-linecap="round" stroke-linejoin="round"></path>
<path d="M101.886 114.092C101.886 114.092 106.59 119.632 125.07 119.632C132.357 119.632 132.524 114.092 132.524 114.092" stroke="#262525" stroke-linecap="round" stroke-linejoin="round"></path>
<path d="M133.473 97.1009C144.077 97.1009 152.674 88.503 152.674 77.8978V40.9392C152.674 27.0824 141.442 15.8501 127.587 15.8501C113.733 15.8501 102.501 27.0833 102.501 40.9392V66.1249C102.501 83.2323 116.368 97.1009 133.473 97.1009H133.473Z" fill="white" stroke="#262525" stroke-linecap="round" stroke-linejoin="round"></path>
<path d="M136.85 54.9639C136.85 54.9639 139.665 64.9 140.616 70.9667C140.736 71.735 140.193 72.4504 139.42 72.537C138.005 72.695 133.634 72.505 133.634 72.505" stroke="#262525" stroke-linecap="round" stroke-linejoin="round"></path>
<path d="M121.925 51.5016L127.464 51.1007C128.22 51.046 128.789 50.3886 128.733 49.6329C128.679 48.8772 128.021 48.3081 127.266 48.3636L121.727 48.7646C120.971 48.8192 120.402 49.4766 120.458 50.2323C120.512 50.988 121.169 51.5571 121.925 51.5016Z" fill="#262525"></path>
<path d="M143.115 50.6707L148.537 51.8719C149.277 52.0359 150.01 51.5693 150.174 50.8287C150.338 50.0881 149.871 49.356 149.131 49.192L143.708 47.9908C142.969 47.8269 142.236 48.2934 142.072 49.034C141.908 49.7738 142.375 50.5068 143.115 50.6707Z" fill="#262525"></path>
<path d="M122.569 57.5589C122.569 59.1048 123.476 59.2527 124.596 59.2527C125.715 59.2527 126.622 59.1039 126.622 57.5589C126.622 55.4893 125.715 55.4893 124.596 55.4893C123.476 55.4893 122.569 55.5145 122.569 57.5589Z" fill="#262525"></path>
<path d="M130.481 58.7482C130.481 58.7482 127.885 54.277 121.198 55.8077C121.198 55.8077 117.496 56.7257 115.558 55.4883" stroke="#262525" stroke-linecap="round" stroke-linejoin="round"></path>
<path d="M148.717 57.5589C148.717 59.1048 147.81 59.2527 146.691 59.2527C145.571 59.2527 144.664 59.1039 144.664 57.5589C144.664 55.4893 145.571 55.4893 146.691 55.4893C147.81 55.4893 148.717 55.5145 148.717 57.5589Z" fill="#262525"></path>
<path d="M140.805 58.7482C140.805 58.7482 143.401 54.277 150.088 55.8077C150.088 55.8077 153.79 56.7257 155.728 55.4883" stroke="#262525" stroke-linecap="round" stroke-linejoin="round"></path>
<path d="M134.463 79.5967C135.269 79.5967 135.96 80.0851 136.259 80.7828C136.557 80.0859 137.249 79.5967 138.055 79.5967C139.133 79.5967 140.008 80.4709 140.008 81.5503C140.008 82.6296 139.134 83.5039 138.055 83.5039C137.249 83.5039 136.557 83.0155 136.259 82.3178C135.96 83.0146 135.269 83.5039 134.463 83.5039C133.384 83.5039 132.509 82.6296 132.509 81.5503C132.509 80.4709 133.383 79.5967 134.463 79.5967Z" fill="white" stroke="#262525" stroke-linecap="round" stroke-linejoin="round"></path>
<path d="M140.991 81.5517C140.479 83.0169 138.769 84.7814 136.027 84.7814C133.285 84.7814 131.597 83.0632 131.063 81.5517C131.052 81.5215 133.465 81.9796 136.027 81.9804C138.434 81.9813 141.001 81.5223 140.991 81.5517Z" fill="white" stroke="#262525" stroke-linecap="round" stroke-linejoin="round"></path>
<path d="M142.689 80.9492C142.689 80.9492 141.246 81.7755 136.26 81.7755C131.273 81.7755 129.366 80.9492 129.366 80.9492" stroke="#262525" stroke-linecap="round" stroke-linejoin="round"></path>
<path d="M109.832 52.262C109.832 52.262 107.756 57.3175 105.81 64.0533L105.248 90.7362H86.6918C87.0927 79.7838 87.5163 60.2369 87.8324 47.5016C88.667 13.8592 120.531 13.9038 120.531 13.9038C122.472 13.5776 124.503 13.4053 126.622 13.4053C145.212 13.4053 155.729 26.0145 152.674 48.016C152.674 48.016 150.68 31.5475 136.624 31.5475C111.248 31.5475 109.833 52.262 109.833 52.262H109.832Z" fill="#262525"></path>
<path d="M106.168 56.5435V107.864C106.168 115.74 99.784 122.125 91.9082 122.125H85.0999C82.8153 122.125 81.0401 120.134 81.3023 117.864L87.4138 64.8715L106.168 56.5443V56.5435Z" fill="#262525"></path>
<path d="M84.9469 59.0882C81.0719 55.2129 81.0719 48.9297 84.9469 45.0543C88.8219 41.179 95.1044 41.1789 98.9794 45.0543C102.854 48.9297 102.854 55.2129 98.9794 59.0883C95.1045 62.9636 88.8219 62.9636 84.9469 59.0882Z" fill="#262525"></path>
<path d="M84.9938 42.708C84.2766 39.6694 86.1582 36.6246 89.1965 35.9073C92.2348 35.19 95.2793 37.0717 95.9966 40.1104C96.7138 43.149 94.8322 46.1938 91.7939 46.9111C88.7556 47.6285 85.7111 45.7467 84.9938 42.708Z" fill="#262525"></path>
<path d="M84.4403 121.552C83.9403 118.47 86.033 115.567 89.1145 115.067C92.196 114.566 95.0995 116.659 95.5995 119.741C96.0996 122.823 94.0069 125.727 90.9254 126.227C87.8439 126.727 84.9404 124.634 84.4403 121.552Z" fill="#262525"></path>
<path d="M103.956 100.393C100.835 100.393 98.3038 97.8622 98.3038 94.7401C98.3038 91.6179 100.835 89.0869 103.956 89.0869C107.078 89.0869 109.609 91.6179 109.609 94.7401C109.609 97.8622 107.078 100.393 103.956 100.393Z" fill="#262525"></path>
<path d="M92.7225 39.8835C89.6007 39.8835 87.0699 37.3525 87.0699 34.2303C87.0699 31.1082 89.6007 28.5771 92.7225 28.5771C95.8443 28.5771 98.3751 31.1082 98.3751 34.2303C98.3751 37.3525 95.8443 39.8835 92.7225 39.8835Z" fill="#262525"></path>
<path d="M151.928 43.8807C149.72 41.673 149.72 38.0936 151.928 35.8859C154.135 33.6782 157.714 33.6782 159.922 35.8859C162.129 38.0936 162.129 41.673 159.922 43.8807C157.714 46.0884 154.135 46.0884 151.928 43.8807Z" fill="#262525"></path>
<path d="M102.306 19.5293C101.589 16.4907 103.47 13.4459 106.509 12.7286C109.547 12.0112 112.591 13.893 113.309 16.9317C114.026 19.9703 112.144 23.0151 109.106 23.7324C106.068 24.4497 103.023 22.5679 102.306 19.5293Z" fill="#262525"></path>
<path d="M102.146 50.2578C101.429 47.2192 103.311 44.1744 106.349 43.4571C109.387 42.7398 112.432 44.6216 113.149 47.6602C113.866 50.6988 111.985 53.7436 108.946 54.4609C105.908 55.1783 102.863 53.2965 102.146 50.2578Z" fill="#262525"></path>
<path d="M77.8554 118.269C77.3553 115.187 79.448 112.283 82.5295 111.783C85.6111 111.283 88.5145 113.376 89.0146 116.458C89.5146 119.54 87.4219 122.444 84.3404 122.944C81.2589 123.444 78.3554 121.351 77.8554 118.269Z" fill="#262525"></path>
<path d="M105.595 109.298C102.473 109.298 99.9427 106.767 99.9427 103.645C99.9427 100.523 102.473 97.9917 105.595 97.9917C108.717 97.9917 111.248 100.523 111.248 103.645C111.248 106.767 108.717 109.298 105.595 109.298Z" fill="#262525"></path>
<path d="M128.744 18.2306C125.623 18.2306 123.092 15.6996 123.092 12.5775C123.092 9.45532 125.623 6.92432 128.744 6.92432C131.866 6.92432 134.397 9.45532 134.397 12.5775C134.397 15.6996 131.866 18.2306 128.744 18.2306Z" fill="#262525"></path>
<path d="M141.931 25.1826C141.214 22.144 143.095 19.0992 146.134 18.3819C149.172 17.6646 152.217 19.5464 152.934 22.585C153.651 25.6236 151.769 28.6684 148.731 29.3857C145.693 30.1031 142.648 28.2213 141.931 25.1826Z" fill="#262525"></path>
<path d="M144.692 33.9238C144.192 30.842 146.285 27.9382 149.366 27.4381C152.448 26.938 155.351 29.0309 155.851 32.1127C156.352 35.1945 154.259 38.0983 151.177 38.5984C148.096 39.0985 145.192 37.0056 144.692 33.9238Z" fill="#262525"></path>
<path d="M150.922 29.5272C149.728 28.3329 149.728 26.3966 150.922 25.2023C152.116 24.008 154.053 24.008 155.247 25.2023C156.441 26.3966 156.441 28.3329 155.247 29.5272C154.053 30.7215 152.116 30.7215 150.922 29.5272Z" fill="#262525"></path>
<path d="M155.494 36.5402C153.806 36.5402 152.437 35.171 152.437 33.482C152.437 31.793 153.806 30.4238 155.494 30.4238C157.183 30.4238 158.552 31.793 158.552 33.482C158.552 35.171 157.183 36.5402 155.494 36.5402Z" fill="#262525"></path>
<path d="M119.094 33.229C118.377 30.1904 120.259 27.1456 123.297 26.4283C126.335 25.7109 129.38 27.5927 130.097 30.6314C130.814 33.67 128.933 36.7148 125.894 37.4321C122.856 38.1494 119.811 36.2677 119.094 33.229Z" fill="#262525"></path>
<path d="M82.7329 117.839C77.2528 117.839 72.8104 113.396 72.8104 107.915C72.8104 102.435 77.2528 97.9917 82.7329 97.9917C88.2129 97.9917 92.6554 102.435 92.6554 107.915C92.6554 113.396 88.2129 117.839 82.7329 117.839Z" fill="#262525"></path>
<path d="M99.9428 124.015C94.4628 124.015 90.0204 119.573 90.0204 114.092C90.0204 108.611 94.4628 104.168 99.9428 104.168C105.423 104.168 109.865 108.611 109.865 114.092C109.865 119.573 105.423 124.015 99.9428 124.015Z" fill="#262525"></path>
<path d="M87.7055 104.961C82.2255 104.961 77.783 100.518 77.783 95.0373C77.783 89.5567 82.2255 85.1138 87.7055 85.1138C93.1856 85.1138 97.628 89.5567 97.628 95.0373C97.628 100.518 93.1856 104.961 87.7055 104.961Z" fill="#262525"></path>
<path d="M83.8423 87.7884C78.3622 87.7884 73.9197 83.3455 73.9197 77.8649C73.9197 72.3843 78.3622 67.9414 83.8423 67.9414C89.3223 67.9414 93.7647 72.3843 93.7647 77.8649C93.7647 83.3455 89.3223 87.7884 83.8423 87.7884Z" fill="#262525"></path>
<path d="M119.388 28.1541C113.908 28.1541 109.465 23.7112 109.465 18.2306C109.465 12.75 113.908 8.30713 119.388 8.30713C124.868 8.30713 129.31 12.75 129.31 18.2306C129.31 23.7112 124.868 28.1541 119.388 28.1541Z" fill="#262525"></path>
<path d="M100.418 36.2005C94.9377 36.2005 90.4952 31.7576 90.4952 26.277C90.4952 20.7964 94.9377 16.3535 100.418 16.3535C105.898 16.3535 110.34 20.7964 110.34 26.277C110.34 31.7576 105.898 36.2005 100.418 36.2005Z" fill="#262525"></path>
<path d="M137.509 37.2884C132.029 37.2884 127.587 32.8455 127.587 27.3649C127.587 21.8843 132.029 17.4414 137.509 17.4414C142.99 17.4414 147.432 21.8843 147.432 27.3649C147.432 32.8455 142.99 37.2884 137.509 37.2884Z" fill="#262525"></path>
<path d="M105.63 42.7728C101.755 38.8975 101.755 32.6143 105.63 28.7389C109.505 24.8635 115.788 24.8635 119.663 28.7389C123.538 32.6143 123.538 38.8975 119.663 42.7728C115.788 46.6482 109.505 46.6482 105.63 42.7728Z" fill="#262525"></path>
<path d="M130.494 25.6698C126.619 21.7944 126.619 15.5112 130.494 11.6359C134.369 7.76051 140.651 7.76049 144.526 11.6359C148.401 15.5112 148.401 21.7944 144.526 25.6698C140.651 29.5452 134.369 29.5452 130.494 25.6698Z" fill="#262525"></path>
<path d="M86.6919 73.0364C81.2118 73.0364 76.7693 68.5935 76.7693 63.1129C76.7693 57.6324 81.2118 53.1895 86.6919 53.1895C92.1719 53.1895 96.6143 57.6324 96.6143 63.1129C96.6143 68.5935 92.1719 73.0364 86.6919 73.0364Z" fill="#262525"></path>
<path d="M100.418 94.7405C94.9377 94.7405 90.4952 90.2976 90.4952 84.817C90.4952 79.3365 94.9377 74.8936 100.418 74.8936C105.898 74.8936 110.34 79.3365 110.34 84.817C110.34 90.2976 105.898 94.7405 100.418 94.7405Z" fill="#262525"></path>
<path d="M96.4806 67.7659L101.845 70.313C106.211 72.3868 111.248 69.2017 111.248 64.3681C111.248 61.8269 109.785 59.5127 107.49 58.4233L102.126 55.8762C97.759 53.8024 92.7226 56.9875 92.7226 61.8211C92.7226 64.3622 94.1851 66.6765 96.4806 67.7659Z" fill="white"></path>
<path d="M105.205 66.6891C105.847 65.8938 106.231 64.8826 106.231 63.7822C106.231 61.2242 104.157 59.1504 101.599 59.1504C99.9134 59.1504 98.4382 60.0507 97.6279 61.3974" stroke="#262525" stroke-linecap="round" stroke-linejoin="round"></path>
<path d="M106.17 63.0196C105.572 62.7371 104.964 62.5791 104.258 62.5791C102.659 62.5791 101.25 63.3895 100.418 64.621" stroke="#262525" stroke-linecap="round" stroke-linejoin="round"></path>
<path d="M107.807 58.5837C107.703 58.5274 107.597 58.4736 107.49 58.4223L102.126 55.8752C97.759 53.8014 92.7225 56.9865 92.7225 61.8201C92.7225 64.3613 94.1851 66.6755 96.4805 67.7649L101.845 70.312C103.204 70.9576 104.628 71.0938 105.945 70.829" stroke="#262525" stroke-linecap="round" stroke-linejoin="round"></path>
<path d="M104.28 76.0559C102.241 76.0559 100.588 74.4029 100.588 72.3639C100.588 70.3248 102.241 68.6719 104.28 68.6719C106.319 68.6719 107.972 70.3248 107.972 72.3639C107.972 74.4029 106.319 76.0559 104.28 76.0559Z" fill="#FF3500" stroke="#262525" stroke-linecap="round" stroke-linejoin="round"></path>
<path d="M65.2759 223.932C65.2759 223.932 44.9711 223.88 29.5894 215.471C14.2068 207.061 5.43917 189.472 5.43917 189.472L27.2821 180.088L63.4309 197.934L65.2767 223.932L65.2759 223.932Z" fill="#262525" stroke="#262525" stroke-linecap="round" stroke-linejoin="round"></path>
<path d="M11.2884 244.129C21.4118 249.669 34.108 245.951 39.6471 235.828L84.1239 154.533C89.6631 144.409 85.9462 131.711 75.8237 126.172C65.7003 120.632 53.0041 124.348 47.465 134.473L2.98818 215.768C-2.55094 225.893 1.1659 238.59 11.2884 244.13V244.129Z" fill="white" stroke="#262525" stroke-linecap="round" stroke-linejoin="round"></path>
<path d="M89.1006 148.455L65.2757 223.931C65.2757 223.931 57.4823 210.752 38.203 200.292C18.9237 189.831 5.43899 189.472 5.43899 189.472L46.4041 133.831C53.1947 122.555 67.319 118.104 79.3479 123.447C88.9098 127.694 93.2621 138.854 89.1014 148.455H89.1006Z" fill="white"></path>
<path d="M89.1007 148.455L65.2758 223.931C65.2758 223.931 57.4823 210.752 38.203 200.292C18.9237 189.831 5.43904 189.472 5.43904 189.472L46.4041 133.831C51.0539 126.11 59.1432 121.588 67.6427 121.221L72.253 119.522" stroke="#262525" stroke-linecap="round" stroke-linejoin="round"></path>
<path d="M27.8039 84.7715C16.2768 84.2411 6.50225 93.1558 5.97104 104.684L0.442033 224.792C-0.0883437 236.321 8.8255 246.096 20.3526 246.627C31.8796 247.158 41.6542 238.243 42.1854 226.715L47.7144 106.607C48.2448 95.0783 39.331 85.3028 27.8039 84.7715Z" fill="white"></path>
<path d="M42.725 215.005L47.7144 106.607C48.2448 95.0783 39.331 85.3028 27.8039 84.7715C16.2768 84.2411 6.50225 93.1558 5.97104 104.684L0.442033 224.792C-0.0883437 236.321 8.8255 246.096 20.3526 246.627C29.5631 247.051 37.6549 241.444 40.8061 233.292L45.0752 225.905" stroke="#262525" stroke-linecap="round" stroke-linejoin="round"></path>
<path d="M29.8616 135.856L28.7941 135.942C15.7331 137.077 4.22449 127.408 3.08893 114.346L0.769049 85.4834L38.4888 82.9111L39.1175 90.7339L51.5995 91.2652L53.1158 110.124C54.2513 123.186 42.9243 134.719 29.8633 135.855L29.8616 135.856Z" fill="white"></path>
<path d="M51.5987 91.2661L53.115 110.125C53.832 118.369 49.5839 126.004 43.0689 130.8" stroke="#262525" stroke-linecap="round" stroke-linejoin="round"></path>
<path d="M10.6268 129.726C6.43758 125.857 3.62178 120.475 3.08889 114.346L0.769006 85.4834" stroke="#262525" stroke-linecap="round" stroke-linejoin="round"></path>
<path d="M38.4881 82.9116L25.5069 83.9968L26.3954 47.9999C26.4635 44.4752 29.3759 41.6725 32.9002 41.7415C36.4246 41.8096 39.227 44.7223 39.158 48.247L38.4873 82.9116H38.4881Z" fill="white"></path>
<path d="M25.5077 83.9968L26.3961 47.9999C26.4642 44.4752 29.3767 41.6725 32.901 41.7415C36.4254 41.8096 39.2277 44.7223 39.1588 48.247L38.488 82.9116" stroke="#262525" stroke-linecap="round" stroke-linejoin="round"></path>
<path d="M26.7896 83.8142L14.3236 84.8162L6.40745 49.1109C5.67955 45.661 7.88594 42.275 11.3355 41.5471C14.785 40.8191 18.1707 43.0257 18.8986 46.4756L26.7904 83.8133L26.7896 83.8142Z" fill="white"></path>
<path d="M14.3236 84.8172L6.40745 49.1119C5.67955 45.662 7.88594 42.276 11.3355 41.548C14.785 40.8201 18.1707 43.0267 18.8986 46.4766L26.7904 83.8143" stroke="#262525" stroke-linecap="round" stroke-linejoin="round"></path>
<path d="M38.4879 82.9111L39.1175 90.7348" stroke="#262525" stroke-linecap="round" stroke-linejoin="round"></path>
<path d="M21.9605 94.014L9.23656 95.037L7.93037 82.1032C7.62526 78.5911 10.2242 75.496 13.7368 75.1908C17.2485 74.8857 20.3434 77.4849 20.6485 80.9978L21.9605 94.014Z" fill="white" stroke="#262525" stroke-linecap="round" stroke-linejoin="round"></path>
<path d="M26.4701 85.506C25.3875 88.8071 21.864 90.6363 18.5422 89.6217L12.0911 87.6513C8.73401 86.5745 6.88566 82.9808 7.96239 79.6234C9.03911 76.266 12.6324 74.4174 15.9895 75.4943L22.2716 77.4142C25.6909 78.4591 27.5846 82.1091 26.4709 85.5069L26.4701 85.506Z" fill="white" stroke="#262525" stroke-linecap="round" stroke-linejoin="round"></path>
<path d="M21.9716 100.029C18.4212 100.383 15.2717 97.7547 14.9859 94.1972L14.1706 84.051C13.8655 80.5389 16.3165 77.4555 19.8282 77.1503C23.34 76.8452 26.4348 79.4444 26.7399 82.9573L27.6855 93.0952C28.0108 96.5846 25.459 99.6822 21.9724 100.03L21.9716 100.029Z" fill="white"></path>
<path d="M14.1707 84.0507L14.986 94.1969C15.2718 97.7536 18.4213 100.383 21.9717 100.029C25.4582 99.6811 28.0101 96.5835 27.6848 93.0941L26.7392 82.9562C26.498 80.1805 24.5151 77.9747 21.9608 77.3224L17.089 75.8286" stroke="#262525" stroke-linecap="round" stroke-linejoin="round"></path>
<path d="M14.3731 94.624L1.60627 95.8975L0.54555 82.6965C0.240436 79.1844 2.69144 76.101 6.20318 75.7958C9.71493 75.4907 12.8098 78.0899 13.1149 81.6028L14.3731 94.6231V94.624Z" fill="white"></path>
<path d="M1.60627 95.8975L0.54555 82.6965C0.240436 79.1844 2.69144 76.101 6.20318 75.7958C9.71493 75.4907 12.8098 78.0899 13.1149 81.6028L14.3731 94.6231" stroke="#262525" stroke-linecap="round" stroke-linejoin="round"></path>
<path d="M19.3231 86.0802C18.2405 89.3814 14.717 91.2105 11.3953 90.1959L4.94416 88.2255C1.58707 87.1487 -0.261269 83.555 0.815454 80.1976C1.89218 76.8402 5.48546 74.9917 8.84254 76.0685L15.1247 77.9885C18.544 79.0333 20.4377 82.6833 19.324 86.0811L19.3231 86.0802Z" fill="white"></path>
<path d="M4.94425 88.2254L11.3953 90.1958C14.718 91.2104 18.2415 89.3812 19.3232 86.0801C20.4369 82.6823 18.5432 79.0324 15.1239 77.9875L8.84177 76.0675C5.48468 74.9907 1.8914 76.8392 0.814682 80.1966C0.564203 80.9776 0.471745 81.7719 0.520496 82.5445L1.00298 88.3969" stroke="#262525" stroke-linecap="round" stroke-linejoin="round"></path>
<path d="M14.9499 100.768C11.3994 101.122 8.24998 98.4935 7.9642 94.936L7.14891 84.7897C6.84379 81.2776 9.29475 78.1942 12.8065 77.8891C16.3182 77.5839 19.4131 80.1831 19.7182 83.6961L20.6638 93.8339C20.9891 97.3233 18.4372 100.421 14.9507 100.769L14.9499 100.768Z" fill="white"></path>
<path d="M7.14798 84.7898L7.96331 94.9361C8.24909 98.4927 11.3986 101.122 14.949 100.768C18.4355 100.42 20.9874 97.3226 20.6621 93.8332L19.7165 83.6954C19.4937 81.1306 17.7833 79.0526 15.5088 78.2364L10.6261 76.6123" stroke="#262525" stroke-linecap="round" stroke-linejoin="round"></path>
<path d="M53.1534 110.632L40.5791 108.432L43.9521 90.6366C44.5598 87.164 47.8674 84.8414 51.3396 85.4492C54.8118 86.0569 57.1342 89.3648 56.5265 92.8374L53.1534 110.632Z" fill="white"></path>
<path d="M41.3096 104.577L43.9514 90.6366C44.5591 87.164 47.8666 84.8414 51.3389 85.4492C54.8111 86.0569 57.1335 89.3648 56.5258 92.8374L53.1527 110.632" stroke="#262525" stroke-linecap="round" stroke-linejoin="round"></path>
<path d="M41.3097 104.577L30.5206 117.937L28.9008 125.145" stroke="#262525" stroke-linecap="round" stroke-linejoin="round"></path>
<path d="M56.6089 91.305C56.8913 94.8188 54.2722 97.8971 50.7579 98.1796L34.7701 99.4649C31.4475 99.7322 28.2846 97.5407 27.7029 94.2581C27.0364 90.4921 29.7538 87.0599 33.474 86.7606L49.735 85.4535C53.2484 85.171 56.3265 87.7904 56.6089 91.305Z" fill="white"></path>
<path d="M47.9178 98.4082L34.7702 99.4649C31.4476 99.7322 28.2846 97.5407 27.703 94.2581C27.0364 90.4921 29.7539 87.0599 33.4741 86.7606L49.735 85.4535C53.2485 85.171 56.3265 87.7904 56.6089 91.305C56.6409 91.6967 56.6358 92.0834 56.598 92.4617L55.549 97.9921" stroke="#262525" stroke-linecap="round" stroke-linejoin="round"></path>
<path d="M419.786 55.6899C419.871 54.9054 419.3 54.2695 418.511 54.2695H411.006C410.217 54.2695 409.509 54.9054 409.424 55.6899L408.619 63.152C408.534 63.9364 409.105 64.5723 409.894 64.5723H417.399C418.188 64.5723 418.896 63.9364 418.981 63.152L419.786 55.6899Z" fill="#575555" stroke="#262525" stroke-width="0.357143"></path>
<path d="M406.21 55.6899C406.294 54.9054 405.723 54.2695 404.934 54.2695H397.429C396.64 54.2695 395.932 54.9054 395.847 55.6899L395.042 63.152C394.957 63.9364 395.528 64.5723 396.317 64.5723H403.822C404.611 64.5723 405.32 63.9364 405.404 63.152L406.21 55.6899Z" fill="#575555" stroke="#262525" stroke-width="0.357143"></path>
<rect width="10.3626" height="10.3626" rx="1.42857" transform="matrix(-1 0 -0.107305 0.994226 392.786 54.269)" fill="#0A0A0A"></rect>
<path d="M388.877 61.6818L389.002 60.5278L387.006 58.3601H389.12L389.241 57.231H385.146L385.022 58.3849L387.084 60.5526H384.73L384.608 61.6818H388.877Z" fill="#575555"></path>
<path d="M385.133 56.1698C384.492 56.1698 383.947 56.6595 383.886 57.231C383.824 57.8026 384.263 58.2923 384.904 58.2923C385.544 58.2921 386.089 57.8025 386.15 57.231C386.212 56.6596 385.773 56.17 385.133 56.1698Z" fill="#FF0700" stroke="#0A0A0A" stroke-width="0.714286"></path>
<path d="M418.33 69.1879C418.414 68.4035 417.843 67.7676 417.054 67.7676H409.549C408.76 67.7676 408.052 68.4035 407.967 69.1879L407.162 76.65C407.077 77.4344 407.648 78.0703 408.437 78.0703H415.942C416.731 78.0703 417.44 77.4344 417.524 76.65L418.33 69.1879Z" fill="#575555" stroke="#262525" stroke-width="0.357143"></path>
<path d="M404.753 69.1879C404.837 68.4035 404.267 67.7676 403.478 67.7676H395.972C395.183 67.7676 394.475 68.4035 394.39 69.1879L393.585 76.65C393.5 77.4344 394.071 78.0703 394.86 78.0703H402.366C403.155 78.0703 403.863 77.4344 403.947 76.65L404.753 69.1879Z" fill="#575555" stroke="#262525" stroke-width="0.357143"></path>
<path d="M391.176 69.1879C391.261 68.4035 390.69 67.7676 389.901 67.7676H382.395C381.606 67.7676 380.898 68.4035 380.813 69.1879L380.008 76.65C379.923 77.4344 380.494 78.0703 381.283 78.0703H388.789C389.578 78.0703 390.286 77.4344 390.371 76.65L391.176 69.1879Z" fill="#575555" stroke="#262525" stroke-width="0.357143"></path>
<path d="M416.873 82.6864C416.957 81.902 416.386 81.2661 415.597 81.2661H408.092C407.303 81.2661 406.595 81.902 406.51 82.6864L405.705 90.1486C405.62 90.933 406.191 91.5689 406.98 91.5689H414.485C415.274 91.5689 415.983 90.933 416.067 90.1486L416.873 82.6864Z" fill="#575555" stroke="#262525" stroke-width="0.357143"></path>
<path d="M403.296 82.6864C403.38 81.902 402.809 81.2661 402.02 81.2661H394.515C393.726 81.2661 393.018 81.902 392.933 82.6864L392.128 90.1486C392.043 90.933 392.614 91.5689 393.403 91.5689H400.909C401.698 91.5689 402.406 90.933 402.49 90.1486L403.296 82.6864Z" fill="#575555" stroke="#262525" stroke-width="0.357143"></path>
<path d="M389.719 82.6864C389.804 81.902 389.233 81.2661 388.444 81.2661H380.938C380.149 81.2661 379.441 81.902 379.357 82.6864L378.551 90.1486C378.466 90.933 379.037 91.5689 379.826 91.5689H387.332C388.121 91.5689 388.829 90.933 388.914 90.1486L389.719 82.6864Z" fill="#575555" stroke="#262525" stroke-width="0.357143"></path>
<path d="M415.416 96.185C415.501 95.4005 414.93 94.7646 414.141 94.7646H406.635C405.846 94.7646 405.138 95.4005 405.053 96.185L404.248 103.647C404.163 104.432 404.734 105.067 405.523 105.067H413.029C413.818 105.067 414.526 104.432 414.611 103.647L415.416 96.185Z" fill="#575555" stroke="#262525" stroke-width="0.357143"></path>
<path d="M401.839 96.185C401.924 95.4005 401.353 94.7646 400.564 94.7646H393.058C392.269 94.7646 391.561 95.4005 391.476 96.185L390.671 103.647C390.586 104.432 391.157 105.067 391.946 105.067H399.452C400.241 105.067 400.949 104.432 401.034 103.647L401.839 96.185Z" fill="#575555" stroke="#262525" stroke-width="0.357143"></path>
<path d="M388.262 96.185C388.347 95.4005 387.776 94.7646 386.987 94.7646H379.481C378.692 94.7646 377.984 95.4005 377.899 96.185L377.094 103.647C377.009 104.432 377.58 105.067 378.369 105.067H385.875C386.664 105.067 387.372 104.432 387.457 103.647L388.262 96.185Z" fill="#575555" stroke="#262525" stroke-width="0.357143"></path>
<path d="M413.959 109.684C414.044 108.899 413.473 108.263 412.684 108.263H405.178C404.389 108.263 403.681 108.899 403.597 109.684L402.791 117.146C402.706 117.93 403.277 118.566 404.066 118.566H411.572C412.361 118.566 413.069 117.93 413.154 117.146L413.959 109.684Z" fill="#575555" stroke="#262525" stroke-width="0.357143"></path>
<rect width="10.3626" height="10.3626" rx="1.42857" transform="matrix(-1 0 -0.107305 0.994226 400.535 108.263)" fill="#575555" stroke="#262525" stroke-width="0.357143"></rect>
<rect width="10.3626" height="10.3626" rx="1.42857" transform="matrix(-1 0 -0.107305 0.994226 386.959 108.263)" fill="#575555" stroke="#262525" stroke-width="0.357143"></rect>
<rect width="10.3626" height="10.3626" rx="1.42857" transform="matrix(-1 0 -0.107305 0.994226 412.655 121.762)" fill="#575555" stroke="#262525" stroke-width="0.357143"></rect>
<rect width="10.3626" height="10.3626" rx="1.42857" transform="matrix(-1 0 -0.107305 0.994226 399.078 121.762)" fill="#575555" stroke="#262525" stroke-width="0.357143"></rect>
<path d="M361.227 81.1422L367.157 64.2693C368.111 61.0951 371.458 59.2962 374.632 60.2503C377.806 61.2044 379.605 64.5517 378.651 67.7259L370.455 93.1176L361.228 81.1422H361.227Z" fill="white"></path>
<path d="M370.453 93.1171L378.649 67.7254C379.603 64.5513 377.804 61.2048 374.631 60.2498C371.457 59.2957 368.111 61.0946 367.156 64.2688L361.225 81.1417" stroke="#262525" stroke-linecap="round" stroke-linejoin="round"></path>
<path d="M371.172 71.0222C367.775 69.8285 366.207 65.9163 367.837 62.7068L372.897 52.7455C374.389 49.8142 377.973 48.6474 380.904 50.1395C383.835 51.6308 385.002 55.216 383.51 58.1473L378.456 68.101C377.103 70.7641 373.988 72.0133 371.171 71.023L371.172 71.0222Z" fill="white"></path>
<path d="M366.208 66.9695L367.837 62.7068L372.897 52.7455C374.389 49.8142 377.973 48.6474 380.904 50.1395C383.835 51.6308 385.002 55.216 383.51 58.1473L378.456 68.101L377.314 71.8653" stroke="#262525" stroke-linecap="round" stroke-linejoin="round"></path>
<path d="M412.653 127.218C412.499 130.529 415.058 133.337 418.369 133.49L424.274 133.899C427.405 134.044 430.306 131.885 430.749 128.781C431.255 125.221 428.593 122.083 425.088 121.921L418.926 121.5C415.615 121.346 412.807 123.906 412.654 127.217L412.653 127.218Z" fill="white" stroke="#262525" stroke-linecap="round" stroke-linejoin="round"></path>
<path d="M413.208 115.228C413.055 118.539 415.614 121.348 418.925 121.501L429.67 122.207C432.801 122.352 435.703 120.193 436.145 117.089C436.652 113.529 433.989 110.391 430.484 110.229L419.481 109.511C416.17 109.357 413.362 111.917 413.209 115.228H413.208Z" fill="white" stroke="#262525" stroke-linecap="round" stroke-linejoin="round"></path>
<path d="M413.765 103.238C413.611 106.55 416.17 109.358 419.481 109.511L431.577 110.323C434.708 110.469 437.61 108.309 438.052 105.206C438.559 101.646 435.896 98.5083 432.391 98.346L420.037 97.5222C416.726 97.3684 413.918 99.9281 413.765 103.239V103.238Z" fill="white" stroke="#262525" stroke-linecap="round" stroke-linejoin="round"></path>
<path d="M414.32 91.2487C414.167 94.5599 416.726 97.3684 420.037 97.5214L430.782 98.2275C433.913 98.3729 436.815 96.2134 437.257 93.1106C437.764 89.5506 435.101 86.4126 431.596 86.2504L420.593 85.5325C417.282 85.3786 414.474 87.9383 414.321 91.2495L414.32 91.2487Z" fill="white" stroke="#262525" stroke-linecap="round" stroke-linejoin="round"></path>
<path d="M107.439 161.351L106.968 155.034L118.256 143.167H106.718L106.257 136.985H128.609L129.08 143.302L117.43 155.169H130.281L130.741 161.351H107.439Z" fill="#262525"></path>
<path d="M128.623 131.246C132.093 131.247 134.951 133.909 135.182 137.008C135.412 140.107 132.951 142.768 129.481 142.768C126.011 142.768 123.152 140.107 122.921 137.008C122.69 133.909 125.152 131.246 128.623 131.246Z" fill="#FF3500" stroke="white" stroke-width="4"></path>
</g>
<g filter="url(#filter0_d_2147_61829)">
<path d="M411.865 47.8185C412.147 45.2037 410.244 43.084 407.614 43.084H390.562C387.932 43.084 385.572 45.2037 385.289 47.8185L383.46 64.7716C383.177 67.3863 385.081 69.506 387.711 69.506H404.762C407.392 69.506 409.753 67.3863 410.035 64.7715L411.865 47.8185Z" fill="white"></path>
<path d="M387.913 67.6319L387.711 69.5057H404.762L404.965 67.6319H387.913ZM385.345 64.7715L387.174 47.8182C387.345 46.2385 388.771 44.9579 390.36 44.9579H407.412C409.001 44.958 410.15 46.2386 409.98 47.8182L408.15 64.7715C407.98 66.3513 406.554 67.6317 404.965 67.6319L404.762 69.5057C407.392 69.5056 409.753 67.3862 410.035 64.7715L411.865 47.8182C412.147 45.2036 410.244 43.0841 407.614 43.084H390.562C387.932 43.084 385.572 45.2035 385.29 47.8182L383.46 64.7715C383.178 67.3863 385.081 69.5057 387.711 69.5057L387.913 67.6319C386.324 67.6319 385.174 66.3513 385.345 64.7715Z" fill="black"></path>
<path d="M392.458 62.0945L392.138 59.1352L397.258 53.576H391.836L391.524 50.6802H402.026L402.346 53.6394L397.056 59.1986H403.094L403.407 62.0945H392.458Z" fill="#262525"></path>
<path d="M406.175 50.6799C406.391 52.6864 404.856 54.3129 402.747 54.3129C400.637 54.3129 398.751 52.6864 398.534 50.6799C398.318 48.6734 399.853 47.0469 401.962 47.0469C404.072 47.0469 405.958 48.6734 406.175 50.6799Z" fill="#FF0700"></path>
<path d="M405.175 50.6801C405.022 49.2639 403.67 48.0411 402.07 48.0411C400.47 48.0411 399.381 49.2639 399.534 50.6801C399.687 52.0962 401.04 53.319 402.639 53.319L402.747 54.3133L402.55 54.3084C400.586 54.2144 398.859 52.7245 398.559 50.8665L398.534 50.6801C398.318 48.6736 399.853 47.0469 401.962 47.0469L402.159 47.0517C404.188 47.1489 405.965 48.7362 406.175 50.6801L406.19 50.8665C406.295 52.7862 404.791 54.3132 402.747 54.3133L402.639 53.319C404.239 53.319 405.328 52.0962 405.175 50.6801Z" fill="white"></path>
</g>
<defs>
<filter id="filter0_d_2147_61829" x="375.893" y="43.084" width="43.5393" height="41.5005" filterUnits="userSpaceOnUse" color-interpolation-filters="sRGB">
<feFlood flood-opacity="0" result="BackgroundImageFix"></feFlood>
<feColorMatrix in="SourceAlpha" type="matrix" values="0 0 0 0 0 0 0 0 0 0 0 0 0 0 0 0 0 0 127 0" result="hardAlpha"></feColorMatrix>
<feOffset dy="7.53931"></feOffset>
<feGaussianBlur stdDeviation="3.76965"></feGaussianBlur>
<feComposite in2="hardAlpha" operator="out"></feComposite>
<feColorMatrix type="matrix" values="0 0 0 0 0 0 0 0 0 0 0 0 0 0 0 0 0 0 0.25 0"></feColorMatrix>
<feBlend mode="normal" in2="BackgroundImageFix" result="effect1_dropShadow_2147_61829"></feBlend>
<feBlend mode="normal" in="SourceGraphic" in2="effect1_dropShadow_2147_61829" result="shape"></feBlend>
</filter>
<clipPath id="clip0_2147_61829">
<rect width="438.534" height="252.349" fill="white" transform="matrix(-1 0 0 1 438.534 6.92432)"></rect>
</clipPath>
</defs>
</svg>