<svg width="204" height="204" viewBox="0 0 204 204" fill="none" xmlns="http://www.w3.org/2000/svg">
<g filter="url(#filter0_ii_2196_21)">
<path d="M83.6184 104.475C61.1894 84.7429 119.008 62.5662 130.349 42.0192C141.689 21.4722 123.868 -12.1046 79.722 4.43329C79.722 4.43329 -14.6458 34.5025 1.96006 68.0787C18.5659 101.655 51.8322 35.635 65.1418 46.5294C88.6324 61.5638 22.9163 99.6856 12.4899 137.738C2.0636 175.79 15.7298 196.372 47.7259 202.887C79.722 209.402 102.233 186.462 110.241 156.438C113.931 142.603 124.028 132.394 140.049 130.342C156.071 128.291 163.155 148.505 189.48 130.342C215.805 112.179 206.085 48.3134 162.344 54.0465C118.603 59.7796 106.047 124.207 83.6184 104.475Z" fill="#FF6942"></path>
</g>
<defs>
<filter id="filter0_ii_2196_21" x="0" y="0" width="244" height="244" filterUnits="userSpaceOnUse" color-interpolation-filters="sRGB">
<feFlood flood-opacity="0" result="BackgroundImageFix"></feFlood>
<feBlend mode="normal" in="SourceGraphic" in2="BackgroundImageFix" result="shape"></feBlend>
<feColorMatrix in="SourceAlpha" type="matrix" values="0 0 0 0 0 0 0 0 0 0 0 0 0 0 0 0 0 0 127 0" result="hardAlpha"></feColorMatrix>
<feOffset dx="40" dy="40"></feOffset>
<feGaussianBlur stdDeviation="100"></feGaussianBlur>
<feComposite in2="hardAlpha" operator="arithmetic" k2="-1" k3="1"></feComposite>
<feColorMatrix type="matrix" values="0 0 0 0 1 0 0 0 0 0.890113 0 0 0 0 0.700308 0 0 0 0.6 0"></feColorMatrix>
<feBlend mode="normal" in2="shape" result="effect1_innerShadow_2196_21"></feBlend>
<feColorMatrix in="SourceAlpha" type="matrix" values="0 0 0 0 0 0 0 0 0 0 0 0 0 0 0 0 0 0 127 0" result="hardAlpha"></feColorMatrix>
<feOffset dy="40"></feOffset>
<feGaussianBlur stdDeviation="40"></feGaussianBlur>
<feComposite in2="hardAlpha" operator="arithmetic" k2="-1" k3="1"></feComposite>
<feColorMatrix type="matrix" values="0 0 0 0 1 0 0 0 0 0.22807 0 0 0 0 0 0 0 0 1 0"></feColorMatrix>
<feBlend mode="normal" in2="effect1_innerShadow_2196_21" result="effect2_innerShadow_2196_21"></feBlend>
</filter>
</defs>
</svg>